<?xml version="1.0" encoding="UTF-8"?>
<svg xmlns="http://www.w3.org/2000/svg" xmlns:xlink="http://www.w3.org/1999/xlink" viewBox="0 0 100 100" width="100px" height="100px">
<g id="surface107494932">
<path style="fill-rule:nonzero;fill:rgb(100%,100%,100%);fill-opacity:1;stroke-width:10;stroke-linecap:butt;stroke-linejoin:round;stroke:rgb(100%,100%,100%);stroke-opacity:1;stroke-miterlimit:10;" d="M 215.04 92.16 C 215.04 112.89 207.75 131.98 195.65 146.93 C 195.53 147.08 195.28 147.42 195.33 147.35 C 188.18 156.89 174.66 173.37 162.45 191.25 C 150.25 209.12 139.59 228.58 137.9 241.92 C 137.28 247.06 132.78 250.88 127.69 250.88 C 122.6 250.88 118.21 247.09 117.5 242.02 C 117.5 242 117.49 241.97 117.49 241.95 C 115.76 228.23 104.62 207.96 92.08 189.58 C 79.57 171.24 65.96 154.62 59.29 145.64 C 59.29 145.63 59.28 145.63 59.28 145.62 C 47.81 130.88 40.96 112.31 40.96 92.16 C 40.96 44.13 79.97 5.12 128 5.12 C 176.03 5.12 215.04 44.13 215.04 92.16 Z M 215.04 92.16 " transform="matrix(0.390625,0,0,0.390625,0,0)"/>
<path style=" stroke:none;fill-rule:nonzero;fill:rgb(0%,0%,0%);fill-opacity:1;" d="M 50 2 C 31.238281 2 16 17.238281 16 36 C 16 43.871094 18.675781 51.125 23.15625 56.882812 C 23.15625 56.886719 23.160156 56.886719 23.160156 56.890625 C 25.765625 60.398438 31.082031 66.890625 35.96875 74.054688 C 40.867188 81.234375 45.21875 89.152344 45.894531 94.511719 C 45.894531 94.519531 45.898438 94.53125 45.898438 94.539062 C 46.175781 96.519531 47.890625 98 49.878906 98 C 51.867188 98 53.625 96.507812 53.867188 94.5 C 54.527344 89.289062 58.691406 81.6875 63.457031 74.707031 C 68.226562 67.722656 73.507812 61.285156 76.300781 57.558594 C 76.28125 57.585938 76.378906 57.453125 76.425781 57.394531 C 81.152344 51.554688 84 44.097656 84 36 C 84 17.238281 68.761719 2 50 2 Z M 50 6 C 51.21875 6 52.375 6.21875 53.554688 6.359375 L 39.714844 23.269531 L 28.988281 14.597656 C 34.398438 9.289062 41.800781 6 50 6 Z M 58.019531 7.214844 C 66.15625 9.472656 72.832031 15.015625 76.605469 22.386719 L 65.894531 35.480469 C 65.601562 26.914062 58.632812 20 50 20 C 48.960938 20 48.058594 20.402344 47.074219 20.59375 Z M 26.402344 17.648438 L 37.183594 26.363281 L 21.589844 45.421875 C 20.605469 42.453125 20 39.308594 20 36 C 20 29.042969 22.449219 22.730469 26.402344 17.648438 Z M 50 24 C 56.660156 24 62 29.339844 62 36 C 62 42.660156 56.660156 48 50 48 C 43.339844 48 38 42.660156 38 36 C 38 29.339844 43.339844 24 50 24 Z M 78.347656 26.570312 C 79.335938 29.550781 80 32.683594 80 36 C 80 43.171875 77.488281 49.742188 73.304688 54.898438 C 73.265625 54.949219 73.230469 55 73.195312 55.050781 C 73.324219 54.855469 73.257812 54.953125 73.101562 55.160156 C 70.4375 58.714844 65.050781 65.277344 60.152344 72.449219 C 55.253906 79.621094 50.738281 87.324219 49.894531 94.011719 C 49.894531 94.015625 49.894531 94.019531 49.894531 94.023438 C 49.894531 94.015625 49.929688 94 49.878906 94 C 49.867188 94 49.863281 94.003906 49.859375 93.984375 C 49.042969 87.570312 44.800781 80.203125 40.15625 73.253906 Z M 34.09375 36.460938 C 34.351562 45.054688 41.34375 52 50 52 C 51.007812 52 51.890625 51.601562 52.847656 51.421875 L 37.796875 69.820312 C 33.296875 63.46875 28.511719 57.386719 26.347656 54.46875 C 26.335938 54.457031 26.328125 54.441406 26.316406 54.429688 C 25.136719 52.914062 24.421875 51.082031 23.546875 49.351562 Z M 34.09375 36.460938 "/>
</g>
</svg>
