<?xml version="1.0" encoding="UTF-8"?>
<svg xmlns="http://www.w3.org/2000/svg" xmlns:xlink="http://www.w3.org/1999/xlink" viewBox="0 0 100 100" width="100px" height="100px">
<g id="surface15048578">
<path style="fill-rule:nonzero;fill:rgb(100%,100%,100%);fill-opacity:1;stroke-width:10;stroke-linecap:butt;stroke-linejoin:round;stroke:rgb(100%,100%,100%);stroke-opacity:1;stroke-miterlimit:10;" d="M 184.32 20.43 C 212.54 20.43 235.52 43.41 235.52 71.63 L 235.52 184.27 C 235.52 212.49 212.54 235.47 184.32 235.47 L 71.68 235.47 C 43.46 235.47 20.48 212.49 20.48 184.27 L 20.48 71.63 C 20.48 43.41 43.46 20.43 71.68 20.43 Z M 184.32 20.43 " transform="matrix(0.390625,0,0,0.390625,0,0)"/>
<path style=" stroke:none;fill-rule:nonzero;fill:rgb(0%,0%,0%);fill-opacity:1;" d="M 28 7.980469 C 16.976562 7.980469 8 16.957031 8 27.980469 L 8 71.980469 C 8 83.003906 16.976562 91.980469 28 91.980469 L 72 91.980469 C 83.023438 91.980469 92 83.003906 92 71.980469 L 92 27.980469 C 92 16.957031 83.023438 7.980469 72 7.980469 Z M 28 11.980469 L 72 11.980469 C 80.863281 11.980469 88 19.117188 88 27.980469 L 88 71.980469 C 88 80.84375 80.863281 87.980469 72 87.980469 L 28 87.980469 C 19.136719 87.980469 12 80.84375 12 71.980469 L 12 27.980469 C 12 19.117188 19.136719 11.980469 28 11.980469 Z M 51.9375 26 C 39.753906 26 29.871094 36.144531 29.875 48.554688 C 29.875 50.023438 29.824219 52.046875 29.363281 53.425781 C 29.132812 54.117188 28.832031 54.601562 28.5 54.886719 C 28.167969 55.171875 27.804688 55.363281 26.980469 55.363281 C 26.3125 55.363281 25.6875 55.699219 25.316406 56.257812 C 24.945312 56.8125 24.878906 57.519531 25.136719 58.136719 C 27.230469 63.109375 30.59375 66.488281 35.027344 68.46875 C 35.273438 71.585938 37.871094 73.996094 41 74 C 43.175781 73.996094 45.175781 72.816406 46.234375 70.917969 C 46.289062 70.925781 46.347656 70.929688 46.402344 70.933594 C 48.144531 71.054688 49.996094 71.105469 51.9375 71.105469 C 52.25 71.105469 52.558594 71.082031 52.867188 71.070312 C 53.914062 72.820312 55.8125 74 58 74 C 61.3125 74 64 71.3125 64 68 C 64 67.804688 63.972656 67.617188 63.953125 67.429688 C 70.003906 63.394531 74 56.449219 74 48.554688 C 74 36.144531 64.121094 26 51.9375 26 Z M 51.9375 30 C 61.90625 30 70 38.257812 70 48.554688 C 70 55.355469 66.457031 61.261719 61.1875 64.496094 C 61.1875 64.496094 61.183594 64.496094 61.183594 64.496094 C 60.257812 65.066406 59.265625 65.523438 58.242188 65.914062 L 56.492188 66.480469 C 55.445312 66.757812 54.371094 66.972656 53.257812 67.054688 C 53.25 67.054688 53.246094 67.054688 53.238281 67.054688 C 52.820312 67.089844 52.390625 67.105469 51.9375 67.105469 C 50.140625 67.105469 48.464844 67.058594 46.898438 66.953125 C 46.390625 64.089844 43.90625 62.003906 41 62 C 39.050781 62.003906 37.226562 62.953125 36.105469 64.542969 C 33.433594 63.179688 31.523438 61.132812 29.960938 58.316406 C 30.3125 58.125 30.824219 58.164062 31.117188 57.910156 C 32.164062 57.003906 32.777344 55.835938 33.160156 54.691406 C 33.921875 52.402344 33.875 50.023438 33.875 48.554688 C 33.875 38.257812 41.964844 30 51.9375 30 Z M 47.851562 40 C 46.964844 39.980469 46.136719 40.441406 45.683594 41.207031 C 45.234375 41.972656 45.234375 42.917969 45.683594 43.683594 C 46.136719 44.449219 46.964844 44.910156 47.851562 44.890625 C 48.738281 44.910156 49.566406 44.449219 50.019531 43.683594 C 50.46875 42.917969 50.46875 41.972656 50.019531 41.207031 C 49.566406 40.441406 48.738281 39.980469 47.851562 40 Z M 61.554688 40 C 60.667969 39.980469 59.839844 40.441406 59.386719 41.207031 C 58.9375 41.972656 58.9375 42.917969 59.386719 43.683594 C 59.839844 44.449219 60.667969 44.910156 61.554688 44.890625 C 62.441406 44.910156 63.269531 44.449219 63.722656 43.683594 C 64.171875 42.917969 64.171875 41.972656 63.722656 41.207031 C 63.269531 40.441406 62.441406 39.980469 61.554688 40 Z M 47.453125 50.441406 C 46.78125 50.464844 46.167969 50.820312 45.816406 51.390625 C 45.464844 51.960938 45.421875 52.671875 45.703125 53.28125 C 45.703125 53.28125 48.398438 58.871094 54.871094 58.871094 C 61.34375 58.871094 64.039062 53.28125 64.039062 53.28125 C 64.488281 52.273438 64.03125 51.089844 63.023438 50.640625 C 62.015625 50.191406 60.832031 50.648438 60.382812 51.65625 C 60.382812 51.65625 59.160156 54.871094 54.871094 54.871094 C 50.582031 54.871094 49.359375 51.65625 49.359375 51.65625 C 49.035156 50.898438 48.277344 50.414062 47.453125 50.441406 Z M 47.453125 50.441406 "/>
</g>
</svg>
