<svg fill="#000000" xmlns="http://www.w3.org/2000/svg"  viewBox="0 0 64 64" width="64px" height="64px"><path d="M 30.015625 3.3925781 C 29.470625 3.4805781 29.0995 3.9940625 29.1875 4.5390625 L 29.507812 6.5136719 C 29.586813 7.0046719 30.012141 7.3535156 30.494141 7.3535156 C 30.546141 7.3535156 30.601297 7.3507969 30.654297 7.3417969 C 31.200297 7.2527969 31.570422 6.7403125 31.482422 6.1953125 L 31.162109 4.2207031 C 31.074109 3.6757031 30.557625 3.3035781 30.015625 3.3925781 z M 24.974609 4.78125 C 24.844844 4.7762187 24.710781 4.7955 24.582031 4.84375 C 24.065031 5.03975 23.805953 5.6177656 24.001953 6.1347656 L 24.710938 8.0039062 C 24.861937 8.4039062 25.243484 8.6503906 25.646484 8.6503906 C 25.765484 8.6503906 25.884953 8.6309375 26.001953 8.5859375 C 26.518953 8.3899375 26.778031 7.8119219 26.582031 7.2949219 L 25.873047 5.4257812 C 25.726047 5.0380312 25.363906 4.7963438 24.974609 4.78125 z M 19.925781 7.2089844 C 19.797578 7.2299531 19.671437 7.2778125 19.554688 7.3515625 C 19.087688 7.6455625 18.946234 8.2624688 19.240234 8.7304688 L 20.306641 10.423828 C 20.496641 10.725828 20.822297 10.890625 21.154297 10.890625 C 21.336297 10.890625 21.520547 10.839375 21.685547 10.734375 C 22.152547 10.440375 22.292047 9.8234687 21.998047 9.3554688 L 20.933594 7.6640625 C 20.713094 7.3138125 20.310391 7.1460781 19.925781 7.2089844 z M 34.5 10 C 22.626408 10 13 19.872414 13 32 C 13 33.5 12.97489 35.661278 12.425781 37.308594 C 12.151229 38.132252 11.76044 38.805535 11.236328 39.259766 C 10.712216 39.713996 10.05 40 9 40 A 1.0001 1.0001 0 0 0 8.078125 41.388672 C 10.216526 46.466153 13.587565 49.725105 18.166016 51.611328 C 18.067048 52.069315 18 52.533398 18 53 C 18 54.472222 18.485347 55.957881 19.501953 57.101562 C 20.518559 58.245244 22.083334 59 24 59 C 27.003179 59 29.499335 56.765197 29.927734 53.876953 C 31.38622 53.955075 32.898814 54 34.5 54 C 34.699236 54 34.891055 53.982375 35.087891 53.976562 C 35.55858 56.815882 38.032174 59 41 59 C 44.301063 59 47 56.301063 47 53 C 47 52.04865 46.770695 51.144297 46.369141 50.337891 C 52.177256 46.392828 56 39.648544 56 32 C 56 19.872414 46.373592 10 34.5 10 z M 15.835938 10.519531 C 15.580187 10.512656 15.321594 10.603969 15.121094 10.792969 C 14.720094 11.172969 14.702031 11.806031 15.082031 12.207031 L 16.457031 13.658203 C 16.654031 13.867203 16.918594 13.972656 17.183594 13.972656 C 17.430594 13.972656 17.677094 13.880266 17.871094 13.697266 C 18.272094 13.317266 18.290156 12.684203 17.910156 12.283203 L 16.535156 10.832031 C 16.344656 10.631531 16.091687 10.526406 15.835938 10.519531 z M 34.5 12 C 45.266408 12 54 20.927586 54 32 C 54 39.261337 50.23326 45.595986 44.611328 49.101562 A 1.0001 1.0001 0 0 0 44.373047 49.248047 C 41.901941 50.740954 39.081988 51.686874 36.066406 51.929688 A 1.0001 1.0001 0 0 0 35.791016 51.949219 A 1.0001 1.0001 0 0 0 35.787109 51.949219 C 35.366097 51.980301 34.939194 52 34.5 52 C 32.871541 52 31.345798 51.954745 29.888672 51.873047 C 29.357307 49.106552 26.916266 47 24 47 C 22.083334 47 20.518559 47.754755 19.501953 48.898438 C 19.265239 49.16474 19.060545 49.451102 18.880859 49.75 C 15.124344 48.193335 12.45751 45.690712 10.521484 41.748047 C 11.295727 41.543496 12.000655 41.243182 12.544922 40.771484 C 13.42706 40.006965 13.973771 38.992748 14.324219 37.941406 C 15.025113 35.838722 15 33.5 15 32 C 15 20.927586 23.733592 12 34.5 12 z M 12.087891 14.617188 C 11.835516 14.659438 11.599453 14.797937 11.439453 15.023438 C 11.119453 15.473437 11.223828 16.097969 11.673828 16.417969 L 13.302734 17.578125 C 13.479734 17.703125 13.681812 17.765625 13.882812 17.765625 C 14.194812 17.765625 14.502266 17.619703 14.697266 17.345703 C 15.017266 16.895703 14.912891 16.269219 14.462891 15.949219 L 12.833984 14.789062 C 12.608484 14.628563 12.340266 14.574937 12.087891 14.617188 z M 9.5761719 19.294922 C 9.1863594 19.284094 8.811625 19.504812 8.640625 19.882812 C 8.412625 20.384813 8.6337187 20.976078 9.1367188 21.205078 L 10.957031 22.03125 C 11.091031 22.09325 11.233094 22.121094 11.371094 22.121094 C 11.751094 22.121094 12.11425 21.904156 12.28125 21.535156 C 12.50925 21.033156 12.288156 20.441891 11.785156 20.212891 L 9.9648438 19.384766 C 9.8388438 19.327016 9.7061094 19.298531 9.5761719 19.294922 z M 7.6347656 24.431641 C 7.2506719 24.496187 6.9214219 24.782797 6.8261719 25.185547 C 6.6981719 25.722547 7.0294063 26.262625 7.5664062 26.390625 L 9.5136719 26.853516 C 9.5906719 26.871516 9.6671406 26.880859 9.7441406 26.880859 C 10.196141 26.880859 10.607797 26.569328 10.716797 26.111328 C 10.844797 25.574328 10.513563 25.036203 9.9765625 24.908203 L 8.0292969 24.445312 C 7.8955469 24.413312 7.7627969 24.410125 7.6347656 24.431641 z M 30.5 25 A 2.5 2.5 0 0 0 30.5 30 A 2.5 2.5 0 0 0 30.5 25 z M 44.5 25 A 2.5 2.5 0 0 0 44.5 30 A 2.5 2.5 0 0 0 44.5 25 z M 7.1015625 29.779297 C 6.5265625 29.753297 6.0835469 30.182375 6.0605469 30.734375 C 6.0375469 31.287375 6.4655781 31.754344 7.0175781 31.777344 L 9.015625 31.861328 C 9.030625 31.862328 9.0445938 31.863281 9.0585938 31.863281 C 9.5915937 31.863281 10.033641 31.44325 10.056641 30.90625 C 10.079641 30.35325 9.6516094 29.886281 9.0996094 29.863281 L 7.1015625 29.779297 z M 45.009766 34.986328 A 1.0001 1.0001 0 0 0 44.085938 35.59375 C 44.085938 35.59375 42.454545 39.5 37.5 39.5 C 32.545455 39.5 30.914062 35.59375 30.914062 35.59375 A 1.0002742 1.0002742 0 1 0 29.085938 36.40625 C 29.085938 36.40625 31.454545 41.5 37.5 41.5 C 43.545455 41.5 45.914062 36.40625 45.914062 36.40625 A 1.0001 1.0001 0 0 0 45.009766 34.986328 z M 24 49 C 26.220986 49 28 50.779015 28 53 C 28 55.220985 26.220986 57 24 57 C 22.583334 57 21.648107 56.504755 20.998047 55.773438 C 20.347987 55.042119 20 54.027778 20 53 C 20 52.545618 20.078874 52.09771 20.210938 51.671875 A 1.0001 1.0001 0 0 0 20.423828 51.138672 C 20.578557 50.808474 20.760171 50.494174 20.998047 50.226562 C 21.648107 49.495244 22.583334 49 24 49 z M 44.652344 51.394531 C 44.869503 51.885438 45 52.423865 45 53 C 45 55.218937 43.218937 57 41 57 C 39.067134 57 37.468476 55.647102 37.087891 53.832031 C 39.795384 53.501755 42.350771 52.658509 44.652344 51.394531 z"/></svg>