<svg xmlns="http://www.w3.org/2000/svg"  viewBox="0 0 100 100" width="100px" height="100px"><path fill="#39c2d8" d="M69,82H31c-7.18,0-13-5.82-13-13V31c0-7.18,5.82-13,13-13h38c7.18,0,13,5.82,13,13v38	C82,76.18,76.18,82,69,82z"/><path fill="#1f212b" d="M30,17c-7.168,0-13,5.832-13,13v39c0,7.168,5.832,13,13,13h39c7.168,0,13-5.832,13-13V30	c0-7.168-5.832-13-13-13H30z M30,19h39c6.065,0,11,4.935,11,11v39c0,6.065-4.935,11-11,11H30c-6.065,0-11-4.935-11-11V30	C19,23.935,23.935,19,30,19z"/><path fill="#1f212b" d="M32.838,22C26.862,22,22,26.862,22,32.838v33.326C22,72.14,26.862,77,32.838,77h33.324	C72.138,77,77,72.139,77,66.164V47.502c0-0.276-0.224-0.5-0.5-0.5s-0.5,0.224-0.5,0.5v18.662C76,71.588,71.586,76,66.162,76H32.838	C27.414,76,23,71.588,23,66.164V32.838C23,27.414,27.414,23,32.838,23H66.5c0.276,0,0.5-0.224,0.5-0.5c0-0.276-0.224-0.5-0.5-0.5	H32.838z M76.5,37.002c-0.276,0-0.5,0.224-0.5,0.5v2c0,0.276,0.224,0.5,0.5,0.5s0.5-0.224,0.5-0.5v-2	C77,37.226,76.776,37.002,76.5,37.002z M76.5,41.002c-0.276,0-0.5,0.224-0.5,0.5v4c0,0.276,0.224,0.5,0.5,0.5s0.5-0.224,0.5-0.5v-4	C77,41.226,76.776,41.002,76.5,41.002z"/><circle cx="57" cy="65" r="4.5" fill="#565fa1"/><path fill="#1f212b" d="M57,70c-2.757,0-5-2.243-5-5s2.243-5,5-5s5,2.243,5,5S59.757,70,57,70z M57,61c-2.206,0-4,1.794-4,4 s1.794,4,4,4s4-1.794,4-4S59.206,61,57,61z"/><path fill="#fefdef" d="M34.489,48.523c0-9.382,7.606-16.989,16.989-16.989s16.989,7.606,16.989,16.989 s-7.606,16.989-16.989,16.989s-16.989,0-21.42-9.602C34.489,55.17,34.489,53.693,34.489,48.523z"/><path fill="#1f212b" d="M51.477,66.012c-9.287,0-17.308,0-21.875-9.893c-0.065-0.142-0.061-0.306,0.012-0.443 c0.073-0.139,0.206-0.234,0.36-0.26c4.014-0.669,4.014-1.741,4.014-6.894c0-9.644,7.845-17.488,17.488-17.488 c9.644,0,17.489,7.845,17.489,17.488S61.121,66.012,51.477,66.012z M30.789,56.281c4.333,8.731,11.573,8.73,20.688,8.73 c9.092,0,16.489-7.397,16.489-16.489s-7.397-16.488-16.489-16.488s-16.488,7.396-16.488,16.488 C34.989,53.428,34.988,55.407,30.789,56.281z"/><circle cx="42" cy="65" r="4.5" fill="#565fa1"/><path fill="#1f212b" d="M42,70c-2.757,0-5-2.243-5-5s2.243-5,5-5s5,2.243,5,5S44.757,70,42,70z M42,61c-2.206,0-4,1.794-4,4 s1.794,4,4,4s4-1.794,4-4S44.206,61,42,61z"/><g><circle cx="60" cy="45" r="1.5" fill="#565fa1"/><path fill="#1f212b" d="M60,47c-1.103,0-2-0.897-2-2s0.897-2,2-2s2,0.897,2,2S61.103,47,60,47z M60,44c-0.551,0-1,0.448-1,1 s0.449,1,1,1s1-0.448,1-1S60.551,44,60,44z"/></g><g><circle cx="48" cy="45" r="1.5" fill="#565fa1"/><path fill="#1f212b" d="M48,47c-1.103,0-2-0.897-2-2s0.897-2,2-2s2,0.897,2,2S49.103,47,48,47z M48,44c-0.551,0-1,0.448-1,1 s0.449,1,1,1s1-0.448,1-1S48.551,44,48,44z"/></g><g><path fill="#1f212b" d="M53.5,57c-3.064,0-5.898-1.787-7.221-4.553c-0.119-0.249-0.014-0.548,0.235-0.667 s0.547-0.015,0.667,0.235C48.338,54.437,50.819,56,53.5,56c2.694,0,5.179-1.574,6.331-4.011c0.118-0.249,0.414-0.356,0.666-0.238 c0.25,0.118,0.356,0.416,0.238,0.666C59.418,55.201,56.579,57,53.5,57z"/></g></svg>